<?xml version="1.0" encoding="UTF-8" standalone="no"?>
<!-- Created with Inkscape (http://www.inkscape.org/) -->

<svg
   width="42.835148mm"
   height="28.974243mm"
   viewBox="0 0 42.835148 28.974243"
   version="1.1"
   id="svg1"
   xml:space="preserve"
   inkscape:export-filename="engine.png"
   inkscape:export-xdpi="400"
   inkscape:export-ydpi="400"
   inkscape:version="1.4 (86a8ad7, 2024-10-11)"
   sodipodi:docname="engine.svg"
   xmlns:inkscape="http://www.inkscape.org/namespaces/inkscape"
   xmlns:sodipodi="http://sodipodi.sourceforge.net/DTD/sodipodi-0.dtd"
   xmlns="http://www.w3.org/2000/svg"
   xmlns:svg="http://www.w3.org/2000/svg"><sodipodi:namedview
     id="namedview1"
     pagecolor="#ffffff"
     bordercolor="#000000"
     borderopacity="0.25"
     inkscape:showpageshadow="2"
     inkscape:pageopacity="0.0"
     inkscape:pagecheckerboard="0"
     inkscape:deskcolor="#d1d1d1"
     inkscape:document-units="mm"
     inkscape:zoom="8"
     inkscape:cx="100.6875"
     inkscape:cy="52.5625"
     inkscape:window-width="3840"
     inkscape:window-height="2126"
     inkscape:window-x="2869"
     inkscape:window-y="-11"
     inkscape:window-maximized="1"
     inkscape:current-layer="layer1" /><defs
     id="defs1"><filter
       style="color-interpolation-filters:sRGB"
       inkscape:label="Drop Shadow"
       id="filter1328"
       x="-0.079614356"
       y="-0.064608105"
       width="1.1592287"
       height="1.1292162"><feFlood
         flood-opacity="0.498039"
         flood-color="rgb(0,0,0)"
         result="flood"
         id="feFlood1318" /><feComposite
         in="flood"
         in2="SourceGraphic"
         operator="in"
         result="composite1"
         id="feComposite1320" /><feGaussianBlur
         in="composite1"
         stdDeviation="0.2"
         result="blur"
         id="feGaussianBlur1322" /><feOffset
         dx="0"
         dy="0"
         result="offset"
         id="feOffset1324" /><feComposite
         in="SourceGraphic"
         in2="offset"
         operator="over"
         result="composite2"
         id="feComposite1326" /></filter><filter
       style="color-interpolation-filters:sRGB"
       inkscape:label="Drop Shadow"
       id="filter1340"
       x="-0.072879381"
       y="-0.072946444"
       width="1.1458195"
       height="1.1458308"><feFlood
         flood-opacity="0.498039"
         flood-color="rgb(0,0,0)"
         result="flood"
         id="feFlood1330" /><feComposite
         in="flood"
         in2="SourceGraphic"
         operator="in"
         result="composite1"
         id="feComposite1332" /><feGaussianBlur
         in="composite1"
         stdDeviation="0.2"
         result="blur"
         id="feGaussianBlur1334" /><feOffset
         dx="0"
         dy="0"
         result="offset"
         id="feOffset1336" /><feComposite
         in="SourceGraphic"
         in2="offset"
         operator="over"
         result="composite2"
         id="feComposite1338" /></filter><filter
       style="color-interpolation-filters:sRGB"
       inkscape:label="Drop Shadow"
       id="filter1328-9"
       x="-0.079614356"
       y="-0.064608105"
       width="1.1592287"
       height="1.1292162"><feFlood
         flood-opacity="0.498039"
         flood-color="rgb(0,0,0)"
         result="flood"
         id="feFlood1318-8" /><feComposite
         in="flood"
         in2="SourceGraphic"
         operator="in"
         result="composite1"
         id="feComposite1320-6" /><feGaussianBlur
         in="composite1"
         stdDeviation="0.2"
         result="blur"
         id="feGaussianBlur1322-5" /><feOffset
         dx="0"
         dy="0"
         result="offset"
         id="feOffset1324-0" /><feComposite
         in="SourceGraphic"
         in2="offset"
         operator="over"
         result="composite2"
         id="feComposite1326-2" /></filter></defs><g
     inkscape:label="Layer 1"
     inkscape:groupmode="layer"
     id="layer1"
     transform="translate(-32.939506,-101.35078)"><path
       id="path1"
       style="fill:#ffffff;fill-opacity:1;stroke:#000000;stroke-width:0.594;stroke-linecap:round;stroke-linejoin:round;stroke-miterlimit:9.9;stroke-dasharray:none;stroke-opacity:1"
       d="m 44.097846,101.64778 v 1.84269 h 4.44285 v 1.82249 h -4.48555 c -0.02013,7e-5 -0.04032,7.5e-4 -0.0604,0.002 -0.568511,0.0385 -1.133096,0.25119 -1.50339,0.6813 -0.370295,0.43011 -0.485968,0.97586 -0.480486,1.48666 v 1.43818 c 0.0045,0.26651 -0.1362,0.42116 -0.486255,0.41489 h -2.232001 l 0.0059,0.006 c -0.469279,-0.0188 -0.976858,0.0758 -1.356629,0.43759 -0.391601,0.37309 -0.50509,0.90168 -0.489911,1.35221 l -7.44e-4,-0.0303 v 2.84099 h -2.617852 v -6.57195 l -1.596872,1.59687 v 5.46652 l 0.578389,0.57839 v 6.17801 l 0.959624,1.02118 v -6.46731 l 2.676711,-0.0581 v 7.26363 c -0.0087,0.63759 0.326995,1.22828 0.745157,1.52896 0.418157,0.30071 0.851889,0.38605 1.237948,0.38605 0.0011,0 0.0026,0 0.0037,0 l 2.929073,-0.01 c 0.817656,0 1.215909,0.2009 1.744786,0.65128 0.528878,0.4504 1.123228,1.19853 1.981757,2.09602 0.769883,0.80482 1.206387,1.34219 1.762099,1.76863 0.555706,0.42645 1.255431,0.63632 2.055232,0.65573 0.0072,8e-5 0.01467,8e-5 0.02192,0 h 15.76597 l -0.03272,-7.5e-4 c 0.649776,0.0242 1.278855,-0.13337 1.742669,-0.5482 0.46381,-0.41481 0.673829,-1.03719 0.668026,-1.6313 V 123.471 c 0,-0.84977 0.400805,-1.001 0.776505,-1.0054 0.375697,-0.004 0.755928,0.10471 0.755928,1.0054 v 2.30029 c -0.0065,0.6673 0.171884,1.26413 0.532222,1.70112 0.36034,0.437 0.87588,0.67062 1.36086,0.72034 0.96996,0.0994 1.98557,-0.38813 2.2697,-1.44299 l 1.66919,-5.65445 c 0.0242,-0.0821 0.0365,-0.16729 0.0364,-0.25294 v -5.56884 c -8e-5,-0.0852 -0.0123,-0.16972 -0.0364,-0.2514 l -1.5559,-5.30495 c -0.005,-0.0181 -0.0109,-0.036 -0.0173,-0.0537 -0.22573,-0.62033 -0.60355,-1.11637 -1.10426,-1.39299 -0.50071,-0.27661 -1.08196,-0.29777 -1.56244,-0.14599 -0.96096,0.30356 -1.668549,1.20414 -1.651688,2.30818 v 2.49994 c 0,0.86187 -0.343119,0.94161 -0.693417,0.93635 -0.350301,-0.005 -0.737963,-0.15354 -0.752461,-0.95232 v -1.58263 -7.5e-4 c 3.54e-4,-0.57102 -0.186945,-1.14212 -0.585313,-1.51358 -0.398539,-0.37162 -0.887265,-0.48811 -1.317196,-0.52127 -0.02297,-0.002 -0.04602,-0.002 -0.06905,-0.002 h -5.803516 c -0.06452,-0.001 -0.07923,1.9e-4 -0.08906,0.002 1.75e-4,-0.005 3.72e-4,-0.009 3.72e-4,-0.014 v -1.89077 l -0.003,0.0675 c 0.03432,-0.45139 -0.01377,-0.98772 -0.372193,-1.44376 -0.358407,-0.45605 -0.945714,-0.67126 -1.546284,-0.70303 -0.01575,-7.5e-4 -0.03156,-10e-4 -0.04731,-10e-4 h -3.915985 v -1.90418 h 4.17683 v -1.76076 z m 0.0083,5.45209 h 14.133129 c 0.103694,0.003 0.217609,0.13082 0.216008,0.22601 -0.0015,0.0225 -0.0023,0.0452 -0.0023,0.0677 v 1.86385 c -0.0118,0.39253 0.07089,0.88816 0.429704,1.27451 0.358816,0.38634 0.880495,0.53692 1.399524,0.5503 0.0078,1.1e-4 0.01552,1.1e-4 0.02326,0 h 5.77293 c 0.158631,0.003 0.239089,0.10816 0.239089,0.25006 v 1.60013 c -4.9e-5,0.005 -4.9e-5,0.0108 0,0.016 0.02889,1.59218 1.257038,2.68773 2.511866,2.70653 1.254836,0.0188 2.506476,-1.09714 2.506476,-2.72248 v -2.5138 c 4e-5,-0.004 4e-5,-0.009 0,-0.0133 -0.004,-0.2584 0.23803,-0.52553 0.40356,-0.57782 0.0828,-0.0261 0.10897,-0.022 0.1606,0.007 0.0512,0.0282 0.16972,0.1211 0.28583,0.43547 l 1.50473,5.13166 v 5.31149 l -1.63783,5.55115 c -0.002,0.006 -0.004,0.0141 -0.005,0.0212 0.004,-0.0176 -0.19343,0.14732 -0.362,0.13004 -0.0843,-0.009 -0.11972,-0.025 -0.16504,-0.08 -0.0453,-0.055 -0.12724,-0.19094 -0.12368,-0.54588 2e-5,-0.003 2e-5,-0.006 0,-0.01 v -2.30895 c 0,-1.66972 -1.2793,-2.80736 -2.56322,-2.79231 -1.283928,0.015 -2.543029,1.14949 -2.543029,2.79231 v 4.3838 c 0.0043,0.33877 -0.175272,0.39094 -0.557616,0.38586 -5.259209,-0.001 -10.518481,-7.5e-4 -15.777706,-7.5e-4 -0.600901,-0.0146 -0.712558,-0.0581 -1.011172,-0.28718 -0.298613,-0.22915 -0.75881,-0.75001 -1.558786,-1.58629 -0.791375,-0.82729 -1.373897,-1.59085 -2.1139,-2.22104 -0.740007,-0.63018 -1.702836,-1.07811 -2.903681,-1.07811 h -0.003 l -2.929843,0.01 c -0.102776,-0.002 -0.188798,-0.0627 -0.195424,-0.20832 -0.003,-0.0684 -7.45e-4,-7.61035 -7.45e-4,-11.46951 0,-0.22777 0.104924,-0.27273 0.276404,-0.27736 H 42.016 c 0.396558,0.005 0.864125,-0.0602 1.25699,-0.40489 0.392866,-0.34472 0.544771,-0.89402 0.524724,-1.3828 l 7.44e-4,0.0371 V 107.472 c 1.9e-5,-0.003 1.9e-5,-0.006 0,-0.009 -0.0037,-0.33162 0.05126,-0.34288 0.308332,-0.36354 z" /></g></svg>
