<?xml version="1.0" encoding="UTF-8" standalone="no"?>
<!-- Created with Inkscape (http://www.inkscape.org/) -->

<svg
   width="29.063704mm"
   height="29.064043mm"
   viewBox="0 0 29.063703 29.064043"
   version="1.1"
   id="svg1"
   xml:space="preserve"
   inkscape:export-filename="gear_pattern.png"
   inkscape:export-xdpi="400"
   inkscape:export-ydpi="400"
   inkscape:version="1.4 (86a8ad7, 2024-10-11)"
   sodipodi:docname="gear_pattern.svg"
   xmlns:inkscape="http://www.inkscape.org/namespaces/inkscape"
   xmlns:sodipodi="http://sodipodi.sourceforge.net/DTD/sodipodi-0.dtd"
   xmlns="http://www.w3.org/2000/svg"
   xmlns:svg="http://www.w3.org/2000/svg"><sodipodi:namedview
     id="namedview1"
     pagecolor="#ffffff"
     bordercolor="#000000"
     borderopacity="0.25"
     inkscape:showpageshadow="2"
     inkscape:pageopacity="0.0"
     inkscape:pagecheckerboard="0"
     inkscape:deskcolor="#d1d1d1"
     inkscape:document-units="mm"
     inkscape:zoom="11.313709"
     inkscape:cx="59.485358"
     inkscape:cy="46.978407"
     inkscape:window-width="3840"
     inkscape:window-height="2126"
     inkscape:window-x="2869"
     inkscape:window-y="-11"
     inkscape:window-maximized="1"
     inkscape:current-layer="layer1" /><defs
     id="defs1"><filter
       style="color-interpolation-filters:sRGB"
       inkscape:label="Drop Shadow"
       id="filter1328"
       x="-0.079614357"
       y="-0.064608104"
       width="1.1592287"
       height="1.1292162"><feFlood
         flood-opacity="0.498039"
         flood-color="rgb(0,0,0)"
         result="flood"
         id="feFlood1318" /><feComposite
         in="flood"
         in2="SourceGraphic"
         operator="in"
         result="composite1"
         id="feComposite1320" /><feGaussianBlur
         in="composite1"
         stdDeviation="0.2"
         result="blur"
         id="feGaussianBlur1322" /><feOffset
         dx="0"
         dy="0"
         result="offset"
         id="feOffset1324" /><feComposite
         in="SourceGraphic"
         in2="offset"
         operator="over"
         result="composite2"
         id="feComposite1326" /></filter><filter
       style="color-interpolation-filters:sRGB"
       inkscape:label="Drop Shadow"
       id="filter1340"
       x="-0.072879381"
       y="-0.072946444"
       width="1.1458195"
       height="1.1458308"><feFlood
         flood-opacity="0.498039"
         flood-color="rgb(0,0,0)"
         result="flood"
         id="feFlood1330" /><feComposite
         in="flood"
         in2="SourceGraphic"
         operator="in"
         result="composite1"
         id="feComposite1332" /><feGaussianBlur
         in="composite1"
         stdDeviation="0.2"
         result="blur"
         id="feGaussianBlur1334" /><feOffset
         dx="0"
         dy="0"
         result="offset"
         id="feOffset1336" /><feComposite
         in="SourceGraphic"
         in2="offset"
         operator="over"
         result="composite2"
         id="feComposite1338" /></filter><filter
       style="color-interpolation-filters:sRGB"
       inkscape:label="Drop Shadow"
       id="filter1328-9"
       x="-0.079614356"
       y="-0.064608105"
       width="1.1592287"
       height="1.1292162"><feFlood
         flood-opacity="0.498039"
         flood-color="rgb(0,0,0)"
         result="flood"
         id="feFlood1318-8" /><feComposite
         in="flood"
         in2="SourceGraphic"
         operator="in"
         result="composite1"
         id="feComposite1320-6" /><feGaussianBlur
         in="composite1"
         stdDeviation="0.2"
         result="blur"
         id="feGaussianBlur1322-5" /><feOffset
         dx="0"
         dy="0"
         result="offset"
         id="feOffset1324-0" /><feComposite
         in="SourceGraphic"
         in2="offset"
         operator="over"
         result="composite2"
         id="feComposite1326-2" /></filter></defs><g
     inkscape:label="Layer 1"
     inkscape:groupmode="layer"
     id="layer1"
     transform="translate(-83.025733,-126.41999)"><path
       id="path1"
       style="fill:#ffffff;fill-opacity:1;stroke:#000000;stroke-width:0.593794;stroke-linecap:round;stroke-linejoin:round;stroke-dasharray:none;stroke-opacity:1"
       d="m 96.432285,126.71689 -0.887215,2.57158 c -0.754435,0.13234 -1.494314,0.33727 -2.209329,0.61194 l -1.974993,-1.70518 -1.899268,1.10381 0.495284,2.54941 c -0.579412,0.48059 -1.539062,1.50802 -1.539062,1.50802 l -2.678691,-0.51131 -1.093238,1.90541 1.777834,2.04526 c 0,0 -0.442194,1.36921 -0.578171,2.11552 l -2.522806,0.87698 v 2.19671 l 2.470617,0.85276 c 0.123946,0.74554 0.318687,1.47757 0.581583,2.18614 l -1.729057,1.98898 1.093238,1.9054 2.543955,-0.48573 c 0.504874,0.63049 1.072674,1.20789 1.694605,1.72326 l -0.516091,2.65652 1.899268,1.10347 2.064362,-1.78226 c 0,0 1.393209,0.44176 2.144864,0.57237 l 0.862311,2.48119 h 2.196366 l 0.855836,-2.47983 c 0.818063,-0.14075 2.215123,-0.57373 2.215123,-0.57373 l 2.06402,1.78226 1.89927,-1.10347 -0.51643,-2.66027 c 0,0 1.07766,-1.03238 1.63389,-1.72258 l 2.55998,0.4888 1.09324,-1.9054 -1.74201,-2.00399 c 0.25628,-0.69541 0.44699,-1.41326 0.56964,-2.14418 l 2.53133,-0.87971 v -2.19671 l -2.55998,-0.88346 c -0.12974,-0.72657 -0.57681,-2.10904 -0.57681,-2.10904 l 1.77783,-2.04526 -1.09324,-1.90541 -2.67869,0.51131 c 0,0 -0.93859,-1.00873 -1.49949,-1.47766 l 0.50074,-2.57977 -1.89927,-1.10381 -1.97124,1.70245 c -0.73575,-0.28262 -1.49776,-0.49137 -2.27482,-0.6232 l -0.888919,-2.55759 z m 1.125299,5.0954 c 5.047716,-6e-5 9.139756,4.09183 9.139886,9.13955 6e-5,5.04784 -4.09204,9.13995 -9.139886,9.13988 -5.047845,7e-5 -9.139949,-4.09204 -9.139882,-9.13988 1.23e-4,-5.04772 4.09217,-9.13961 9.139882,-9.13955 z"
       sodipodi:nodetypes="cccccccccccccccccccccccccccccccccccccccccccccccccccccc" /><path
       style="color:#000000;fill:#000000;stroke-width:1.5;stroke-linecap:round;stroke-linejoin:round;-inkscape-stroke:none"
       d="m 58.38879,147.12684 v 5.12114"
       id="path2822" /><path
       id="path2824"
       style="color:#000000;fill:#ffffff;fill-opacity:1;stroke:#000000;stroke-width:0.557313;stroke-linecap:round;stroke-linejoin:round;stroke-dasharray:none;stroke-opacity:1;filter:url(#filter1328)"
       d="m 42.789427,-2.4559454 a 0.75,0.75 0 0 0 -0.749825,0.7498249 V 3.415014 8.5361485 a 0.75,0.75 0 0 0 0.749825,0.750342 0.75,0.75 0 0 0 0.749825,-0.750342 V 4.1653558 h 2.514059 v 4.3713097 a 0.75,0.75 0 0 0 0.749825,0.749825 0.75,0.75 0 0 0 0.749825,-0.749825 V 4.1653558 h 3.26595 a 0.75,0.75 0 0 0 0.106454,-0.00827 0.75,0.75 0 0 0 0.04341,-0.00878 0.75,0.75 0 0 0 0.06201,-0.014986 0.75,0.75 0 0 0 0.04393,-0.014986 0.75,0.75 0 0 0 0.06408,-0.026872 0.75,0.75 0 0 0 0.03307,-0.01602 0.75,0.75 0 0 0 0.06821,-0.041858 0.75,0.75 0 0 0 0.02532,-0.016536 0.75,0.75 0 0 0 0.155029,-0.1550293 0.75,0.75 0 0 0 0.01757,-0.025838 0.75,0.75 0 0 0 0.04082,-0.067179 0.75,0.75 0 0 0 0.01757,-0.036173 0.75,0.75 0 0 0 0.02481,-0.059945 0.75,0.75 0 0 0 0.0155,-0.044958 0.75,0.75 0 0 0 0.01705,-0.072347 0.75,0.75 0 0 0 0.0062,-0.029456 0.75,0.75 0 0 0 0.0088,-0.1111044 v -5.1211386 a 0.75,0.75 0 0 0 -0.749825,-0.7498249 0.75,0.75 0 0 0 -0.750342,0.7498249 V 2.665189 h -2.515613 v -4.3707927 a 0.75,0.75 0 0 0 -0.749825,-0.749825 0.75,0.75 0 0 0 -0.749825,0.749825 V 2.665189 H 43.539255 V -1.7061205 A 0.75,0.75 0 0 0 42.78943,-2.4559454 Z"
       transform="matrix(1.065458,0,0,1.065458,47.689704,137.31318)" /><path
       style="color:#000000;fill:#000000;stroke-width:1.5;stroke-linecap:round;stroke-linejoin:round;-inkscape-stroke:none"
       d="m 65.419381,144.5666 v 5.12114"
       id="path2828" /><path
       style="color:#000000;fill:#000000;stroke-width:1.5;stroke-linecap:round;stroke-linejoin:round;-inkscape-stroke:none"
       d="m 58.38879,152.24798 v 5.12114"
       id="path2834" /><path
       style="color:#000000;fill:#000000;stroke-width:1.5;stroke-linecap:round;stroke-linejoin:round;-inkscape-stroke:none"
       d="m 62.403461,152.24798 v 5.12114"
       id="path2840" /><path
       style="color:#000000;fill:#000000;stroke-width:1.5;stroke-linecap:round;stroke-linejoin:round;-inkscape-stroke:none"
       d="m 62.403461,147.12684 v 5.12114"
       id="path2846" /></g></svg>
