<?xml version="1.0" encoding="UTF-8" standalone="no"?>
<!-- Created with Inkscape (http://www.inkscape.org/) -->

<svg
   version="1.1"
   id="svg1"
   width="86.462257mm"
   height="70mm"
   viewBox="0 0 326.78649 264.56694"
   sodipodi:docname="jtc_svg.svg"
   inkscape:version="1.4 (86a8ad7, 2024-10-11)"
   xml:space="preserve"
   xmlns:inkscape="http://www.inkscape.org/namespaces/inkscape"
   xmlns:sodipodi="http://sodipodi.sourceforge.net/DTD/sodipodi-0.dtd"
   xmlns="http://www.w3.org/2000/svg"
   xmlns:svg="http://www.w3.org/2000/svg"><defs
     id="defs1"><rect
       x="0"
       y="-654.81372"
       width="2789.6858"
       height="2457.7939"
       id="rect3" /></defs><sodipodi:namedview
     id="namedview1"
     pagecolor="#ffffff"
     bordercolor="#000000"
     borderopacity="0.25"
     inkscape:showpageshadow="2"
     inkscape:pageopacity="0.0"
     inkscape:pagecheckerboard="true"
     inkscape:deskcolor="#d1d1d1"
     inkscape:zoom="2"
     inkscape:cx="200"
     inkscape:cy="148.75"
     inkscape:window-width="2880"
     inkscape:window-height="1586"
     inkscape:window-x="-11"
     inkscape:window-y="1069"
     inkscape:window-maximized="1"
     inkscape:current-layer="g1"
     inkscape:document-units="mm" /><g
     inkscape:groupmode="layer"
     inkscape:label="Image"
     id="g1"
     transform="translate(-386.87332,-108.21625)"><path
       style="fill:#ffffff;stroke-width:0.201172;stroke-linecap:round;stroke-linejoin:round;stroke:none;fill-opacity:1"
       d="m 547.74071,108.38453 c -3.36826,0.45074 -6.55454,1.79447 -9.22838,3.89181 l -144.3505,113.23992 c -9.71801,7.62549 -9.71801,22.34171 0,29.96719 l 144.3505,113.23993 c 6.90135,5.41305 16.60711,5.41305 23.50846,0 l 144.3505,-113.23993 c 9.71801,-7.62548 9.71801,-22.3417 0,-29.96719 L 562.02079,112.27634 c -4.04068,-3.16943 -9.19003,-4.57281 -14.28008,-3.89181 z m 9.24809,17.06035 138.29497,110.34931 c 3.8494,3.48763 3.46585,6.61243 -0.12477,9.46234 L 555.80296,355.48671 c -3.46191,3.28988 -7.08943,3.10179 -10.85199,0.0773 L 402.99827,244.82109 c -2.80682,-2.72835 -2.75755,-5.88647 -0.15139,-8.657 L 543.17263,125.66733 c 6.29367,-5.41666 9.94918,-3.92725 13.81617,-0.22245 z"
       id="rect2"
       sodipodi:nodetypes="ccccccccccccccccccc" /><path
       style="fill:#0038a3;fill-opacity:1;stroke:#000000;stroke-width:2.26596"
       d=""
       id="path98" /><text
       xml:space="preserve"
       id="text3"
       style="font-style:normal;font-variant:normal;font-weight:normal;font-stretch:normal;font-size:228.732px;line-height:1.8ex;font-family:'DejaVu Math TeX Gyre';-inkscape-font-specification:'DejaVu Math TeX Gyre, Normal';font-variant-ligatures:normal;font-variant-caps:normal;font-variant-numeric:normal;font-variant-east-asian:normal;text-align:center;letter-spacing:0px;word-spacing:0px;writing-mode:lr-tb;direction:ltr;white-space:pre;shape-inside:url(#rect3);display:inline;fill:#0038a3;fill-opacity:1;stroke:none;stroke-width:150;stroke-linecap:round;stroke-linejoin:round;stroke-dasharray:none;stroke-opacity:1" /><g
       id="g2"
       transform="matrix(0.20117222,0,0,0.20117222,701.29998,111.99517)"
       style="stroke:none"><path
         style="fill:#ffd801;fill-opacity:1;stroke:none;stroke-width:0.960025"
         d="m -1331.1488,988.15544 c -23.5767,-2.9083 -44.9023,-7.8036 -57.4809,-13.195 l -7.3208,-3.1378 -0.2461,-71.74982 c -0.1982,-57.76449 -0.01,-71.74982 0.982,-71.74982 0.6755,0 5.4672,1.07531 10.6482,2.38957 5.1809,1.31428 14.4593,2.87469 20.6185,3.46759 6.1592,0.59291 11.7533,1.52682 12.4314,2.07535 1.7316,1.40079 20.4986,0.18914 27.0879,-1.74886 15.6829,-4.6126 28.0054,-19.52035 33.6787,-40.74455 l 2.1813,-8.16021 0.5504,-173.28451 c 0.3655,-115.05049 0.2279,-173.52154 -0.4095,-173.98983 -0.528,-0.38792 -16.5949,-0.71193 -35.7043,-0.72002 -19.1093,-0.008 -34.9744,-0.3872 -35.2558,-0.84249 -0.2814,-0.4553 -0.8098,-32.03085 -1.1741,-70.16791 -0.5659,-59.22805 -0.4645,-69.4654 0.695,-70.19934 0.7831,-0.49576 63.1224,-0.86547 147.3643,-0.87395 l 146.0068,-0.0147 0.637,49.11916 c 0.3503,27.01554 0.6369,58.98438 0.6369,71.04185 v 21.92269 l -16.0804,0.0106 c -8.8442,0.006 -17.645,0.26932 -19.5572,0.5856 l -3.4767,0.57504 -0.6542,159.01854 c -0.3599,87.46021 -1.0753,167.44277 -1.5898,177.73904 -2.1776,43.57392 -11.1571,81.1316 -27.1991,113.76296 -19.184,39.02274 -44.2053,64.95602 -78.734,81.60402 -18.9525,9.1379 -42.4856,15.5256 -65.3541,17.7395 -13.1925,1.2772 -41.1028,1.0296 -53.2814,-0.4727 z"
         id="path8" /><path
         style="fill:#ffd801;fill-opacity:1;stroke:none;stroke-width:0.960025"
         d="m -861.79444,976.11414 -80.88211,-0.2509 V 905.30679 834.7504 h 22.5606 22.5606 l 0.01,-40.56105 c 0,-22.30858 0.1639,-101.25864 0.3532,-175.44457 0.1893,-74.18593 0.077,-145.46778 -0.249,-158.40412 l -0.5932,-23.52061 -20.2538,0.081 c -11.1396,0.0445 -20.9678,0.35499 -21.8405,0.68989 -1.4313,0.54922 -1.5868,3.7092 -1.5868,32.24133 0,17.39785 -0.2622,32.31579 -0.5827,33.15099 -0.5217,1.35954 -6.1262,1.51719 -53.5214,1.50546 -29.11625,-0.007 -53.91065,-0.27361 -55.09865,-0.59199 l -2.1601,-0.57887 V 399.42066 295.52347 l 23.1961,-0.63356 c 30.13895,-0.82321 439.99006,-0.82744 457.14456,-0.005 l 13.1121,0.62884 v 97.14885 c 0,53.43187 -0.2794,100.45413 -0.6209,104.49389 l -0.6209,7.34504 h -53.9668 -53.9668 l -0.6054,-5.04013 c -0.333,-2.77207 -0.6091,-17.27285 -0.6137,-32.22395 -0.01,-16.88612 -0.3849,-27.88726 -1.0022,-29.04076 -0.9112,-1.70264 -2.1277,-1.85645 -14.6404,-1.85118 -7.5056,0.003 -17.2106,0.2832 -21.5667,0.6223 l -7.9203,0.61655 v 107.70165 c 0,59.23591 0.2873,148.59821 0.6384,198.58289 l 0.6383,90.88122 h 22.4023 22.4022 v 70.41516 70.41516 l -10.8002,0.6223 c -5.9402,0.3423 -31.1048,0.5188 -55.9215,0.3922 -24.8166,-0.1265 -81.5181,-0.343 -126.0033,-0.4811 z"
         id="path9" /><path
         style="fill:#ffd801;fill-opacity:1;stroke:none;stroke-width:0.960025"
         d="m -368.34634,990.28504 c -46.2055,-8.7806 -58.8606,-20.9933 -86.4022,-44.32005 -8.7244,-7.38926 -25.9394,-24.36876 -33.152,-33.37397 -30.5785,-38.17799 -51.3537,-92.78204 -62.2772,-163.68426 -6.034,-39.16549 -6.7027,-49.79291 -6.7048,-106.56277 0,-42.53422 0.3113,-55.55382 1.6728,-69.60181 7.12,-73.46641 19.5061,-122.85199 41.8954,-167.04435 18.7862,-37.08063 41.9058,-63.78574 72.9662,-84.28223 22.9511,-15.1453 51.293,-25.52796 85.895,-31.46647 6.3212,-1.08486 12.0643,-2.44655 12.7625,-3.02596 2.9428,-2.44232 81.1342,0.90442 96.0956,4.11307 2.8004,0.60058 6.2119,0.87782 7.581,0.61609 5.3175,-1.0165 55.2072,14.6097 75.0329,23.50141 11.9406,5.35531 33.8797,18.59608 50.2576,30.33164 l 7.4563,5.3428 -0.2561,107.7571 c -0.1409,59.26641 -0.4721,107.96701 -0.7361,108.22356 -0.264,0.25655 -35.0779,0.78399 -77.3642,1.17209 l -76.8841,0.70565 -0.644,-39.73328 c -0.6898,-42.56302 -1.1999,-48.68737 -5.0116,-60.17179 -4.4716,-13.47301 -11.761,-21.71947 -23.1899,-26.23454 -4.6571,-1.83982 -7.4067,-2.20072 -17.0714,-2.24064 -9.7542,-0.0403 -12.547,0.30658 -18.2169,2.26273 -12.44,4.29186 -21.2003,15.65947 -25.6862,33.33134 l -2.1627,8.51948 -0.01,154.56402 c -0.01,174.82993 -0.5972,161.35959 7.7803,178.09448 5.983,11.95157 12.1321,16.86257 25.8617,20.65459 9.9707,2.75381 28.1601,-0.34852 37.2171,-6.34763 8.1479,-5.39693 13.1467,-12.99437 16.9999,-25.83711 2.5995,-8.66392 3.6748,-29.82929 3.7605,-74.01907 l 0.055,-28.4179 60.7216,-0.68406 c 44.3995,-0.50019 45.20448,0.44721 67.8074,0.43059 2.60421,-0.002 5.20922,0.0123 7.8124,-0.0611 3.32083,-0.0937 6.75158,-0.52591 9.9547,-0.48384 3.20312,0.0421 9.228,0.69185 9.228,0.69185 v 110.73079 c 0,62.15589 -0.3738,111.71405 -0.8522,112.97222 -0.8918,2.34557 -17.1572,14.46376 -30.4184,22.66253 -23.8872,14.7685 -54.3481,26.2606 -92.2582,34.8067 -26.7805,6.0371 -36.0033,6.8108 -85.7567,7.194 -34.8412,0.2684 -45.7211,0.049 -53.7614,-1.086 z"
         id="path10"
         sodipodi:nodetypes="cscsccssscsssscssscssssssccssssscsaazcssssscc" /></g></g><g
     inkscape:groupmode="layer"
     id="layer1"
     inkscape:label="Image 1"
     transform="translate(-386.87332,-108.21625)" /></svg>
